<svg width="24" height="24" viewBox="0 0 24 24" fill="none" xmlns="http://www.w3.org/2000/svg">
<path d="M12 14C11.1666 14 10.4583 13.7083 9.87495 13.125C9.29162 12.5417 8.99995 11.8333 8.99995 11V5C8.99995 4.16667 9.29162 3.45833 9.87495 2.875C10.4583 2.29167 11.1666 2 12 2C12.8333 2 13.5416 2.29167 14.125 2.875C14.7083 3.45833 15 4.16667 15 5V11C15 11.8333 14.7083 12.5417 14.125 13.125C13.5416 13.7083 12.8333 14 12 14ZM11 20V17.925C9.46662 17.7083 8.15429 17.0583 7.06295 15.975C5.97162 14.8917 5.30895 13.575 5.07495 12.025C5.04162 11.7417 5.11662 11.5 5.29995 11.3C5.48329 11.1 5.71662 11 5.99995 11C6.28329 11 6.52095 11.096 6.71295 11.288C6.90495 11.48 7.03395 11.7173 7.09995 12C7.33329 13.1667 7.91262 14.125 8.83795 14.875C9.76329 15.625 10.8173 16 12 16C13.2 16 14.2583 15.621 15.175 14.863C16.0916 14.105 16.6666 13.1507 16.9 12C16.9666 11.7167 17.096 11.4793 17.288 11.288C17.48 11.0967 17.7173 11.0007 18 11C18.2826 10.9993 18.516 11.0993 18.7 11.3C18.884 11.5007 18.959 11.7423 18.925 12.025C18.6916 13.5417 18.0333 14.85 16.95 15.95C15.8666 17.05 14.55 17.7083 13 17.925V20C13 20.2833 12.904 20.521 12.712 20.713C12.52 20.905 12.2826 21.0007 12 21C11.7173 20.9993 11.48 20.9033 11.288 20.712C11.096 20.5207 11 20.2833 11 20Z" fill="black"/>
</svg>
