<svg width="30" height="28" viewBox="0 0 30 28" fill="none" xmlns="http://www.w3.org/2000/svg">
<path d="M5.63596 22.364C4.80022 21.5283 4.13727 20.5361 3.68497 19.4442C3.23267 18.3522 2.99988 17.1819 2.99988 16C2.99988 14.8181 3.23267 13.6477 3.68497 12.5558C4.13727 11.4639 4.80022 10.4717 5.63596 9.63599M18.364 9.63599C19.1997 10.4717 19.8626 11.4639 20.3149 12.5558C20.7672 13.6477 21 14.8181 21 16C21 17.1819 20.7672 18.3522 20.3149 19.4442C19.8626 20.5361 19.1997 21.5283 18.364 22.364M8.46396 19.536C7.99952 19.0717 7.63111 18.5204 7.37975 17.9137C7.1284 17.307 6.99902 16.6567 6.99902 16C6.99902 15.3433 7.1284 14.693 7.37975 14.0863C7.63111 13.4796 7.99952 12.9283 8.46396 12.464M15.536 12.464C16.0004 12.9283 16.3688 13.4796 16.6202 14.0863C16.8715 14.693 17.0009 15.3433 17.0009 16C17.0009 16.6567 16.8715 17.307 16.6202 17.9137C16.3688 18.5204 16.0004 19.0717 15.536 19.536M13 16C13 16.2652 12.8946 16.5196 12.7071 16.7071C12.5195 16.8946 12.2652 17 12 17C11.7347 17 11.4804 16.8946 11.2928 16.7071C11.1053 16.5196 11 16.2652 11 16C11 15.7348 11.1053 15.4804 11.2928 15.2929C11.4804 15.1053 11.7347 15 12 15C12.2652 15 12.5195 15.1053 12.7071 15.2929C12.8946 15.4804 13 15.7348 13 16Z" stroke="#5AF14F" stroke-width="2" stroke-linecap="round" stroke-linejoin="round"/>
<path d="M22 11.3333C22.1889 11.3333 22.3474 11.2693 22.4754 11.1413C22.6034 11.0133 22.6672 10.855 22.6667 10.6666C22.6663 10.4781 22.6023 10.3199 22.4747 10.1919C22.3472 10.0639 22.1889 9.99992 22 9.99992C21.8112 9.99992 21.6529 10.0639 21.5254 10.1919C21.3978 10.3199 21.3338 10.4781 21.3334 10.6666C21.3329 10.855 21.3969 11.0135 21.5254 11.1419C21.6538 11.2704 21.812 11.3341 22 11.3333ZM21.3334 8.66658H22.6667V4.66659H21.3334V8.66658ZM22 14.6666C21.0778 14.6666 20.2112 14.4915 19.4 14.1413C18.5889 13.791 17.8834 13.3161 17.2834 12.7166C16.6834 12.117 16.2085 11.4115 15.8587 10.5999C15.5089 9.78836 15.3338 8.9217 15.3334 7.99992C15.3329 7.07814 15.508 6.21147 15.8587 5.39992C16.2094 4.58836 16.6843 3.88281 17.2834 3.28325C17.8825 2.6837 18.588 2.20881 19.4 1.85859C20.212 1.50836 21.0787 1.33325 22 1.33325C22.9214 1.33325 23.788 1.50836 24.6 1.85859C25.412 2.20881 26.1176 2.6837 26.7167 3.28325C27.3158 3.88281 27.7909 4.58836 28.142 5.39992C28.4932 6.21147 28.668 7.07814 28.6667 7.99992C28.6654 8.9217 28.4903 9.78836 28.1414 10.5999C27.7925 11.4115 27.3176 12.117 26.7167 12.7166C26.1158 13.3161 25.4103 13.7913 24.6 14.1419C23.7898 14.4926 22.9232 14.6675 22 14.6666Z" fill="#FF2A2A"/>
</svg>
