<svg width="16" height="16" viewBox="0 0 16 16" fill="none" xmlns="http://www.w3.org/2000/svg">
<path d="M9.61953 10.6579C8.45853 10.2914 8.78903 9.99968 9.89703 9.58343C10.4278 9.38368 10.105 8.96243 10.1195 8.62543C10.126 8.47118 10.7325 8.50193 10.6885 7.90693C10.6575 7.48793 9.73453 6.89093 9.48303 6.63618C9.33778 6.48918 9.77903 6.08693 9.46828 5.73318C9.04403 5.24968 8.97703 4.40843 8.72028 3.93793C8.72028 3.93793 8.91603 3.63893 8.76603 3.46893C7.47203 2.00418 2.64328 2.13868 1.40928 4.29443C0.024031 6.71443 0.00553107 10.0592 2.88578 11.8612C4.16678 12.6624 2.52603 15.4999 2.52603 15.4999H7.60578C7.60578 15.0154 7.03928 13.2774 8.03078 13.3554C8.89228 13.4232 9.94728 13.3859 9.85378 12.4129C9.82553 12.1194 9.79228 11.8552 9.99728 11.6119C10.2023 11.3689 10.499 10.9354 9.61953 10.6579ZM10.7823 10.2012L15.5 10.8192V9.58343L10.7823 10.2012ZM14.615 14.2702L15.121 13.1999L10.7823 10.8579L14.615 14.2702ZM15.121 7.19143L14.615 6.12093L10.7823 9.53368L15.121 7.19143Z" fill="black"/>
</svg>
