<svg width="24" height="24" viewBox="0 0 24 24" fill="none" xmlns="http://www.w3.org/2000/svg">
<g clip-path="url(#clip0_106_21)">
<path d="M4 0C3.46957 0 2.96086 0.210714 2.58579 0.585786C2.21071 0.960859 2 1.46957 2 2C2 2.53043 2.21071 3.03914 2.58579 3.41421C2.96086 3.78929 3.46957 4 4 4C4.53043 4 5.03914 3.78929 5.41421 3.41421C5.78929 3.03914 6 2.53043 6 2C6 1.46957 5.78929 0.960859 5.41421 0.585786C5.03914 0.210714 4.53043 0 4 0ZM11 0C10.4696 0 9.96086 0.210714 9.58579 0.585786C9.21071 0.960859 9 1.46957 9 2C9 2.53043 9.21071 3.03914 9.58579 3.41421C9.96086 3.78929 10.4696 4 11 4C11.5304 4 12.0391 3.78929 12.4142 3.41421C12.7893 3.03914 13 2.53043 13 2C13 1.46957 12.7893 0.960859 12.4142 0.585786C12.0391 0.210714 11.5304 0 11 0ZM18 0C17.4696 0 16.9609 0.210714 16.5858 0.585786C16.2107 0.960859 16 1.46957 16 2C16 2.53043 16.2107 3.03914 16.5858 3.41421C16.9609 3.78929 17.4696 4 18 4C18.5304 4 19.0391 3.78929 19.4142 3.41421C19.7893 3.03914 20 2.53043 20 2C20 1.46957 19.7893 0.960859 19.4142 0.585786C19.0391 0.210714 18.5304 0 18 0ZM4 6C3.46957 6 2.96086 6.21071 2.58579 6.58579C2.21071 6.96086 2 7.46957 2 8C2 8.53043 2.21071 9.03914 2.58579 9.41421C2.96086 9.78929 3.46957 10 4 10C4.53043 10 5.03914 9.78929 5.41421 9.41421C5.78929 9.03914 6 8.53043 6 8C6 7.46957 5.78929 6.96086 5.41421 6.58579C5.03914 6.21071 4.53043 6 4 6ZM18 6C17.4696 6 16.9609 6.21071 16.5858 6.58579C16.2107 6.96086 16 7.46957 16 8C16 8.53043 16.2107 9.03914 16.5858 9.41421C16.9609 9.78929 17.4696 10 18 10C18.5304 10 19.0391 9.78929 19.4142 9.41421C19.7893 9.03914 20 8.53043 20 8C20 7.46957 19.7893 6.96086 19.4142 6.58579C19.0391 6.21071 18.5304 6 18 6ZM11 5.311C10.4006 5.311 9.82577 5.54911 9.40194 5.97294C8.97811 6.39677 8.74 6.97161 8.74 7.571V15.635L6.063 15.105C5.6985 15.0333 5.32094 15.0713 4.97798 15.214C4.63502 15.3568 4.34203 15.5979 4.136 15.907L3.186 17.332L7.485 22.924C7.74263 23.2585 8.07359 23.5295 8.45239 23.7161C8.8312 23.9026 9.24775 23.9997 9.67 24H16.756C17.943 24 18.996 23.24 19.371 22.115L21.154 16.765C21.3536 16.1644 21.3407 15.5135 21.1175 14.9212C20.8943 14.329 20.4743 13.8315 19.928 13.512L16.303 11.396C15.8811 11.1499 15.4014 11.0201 14.913 11.02H13.26V7.572C13.2601 7.27513 13.2018 6.98114 13.0883 6.70683C12.9747 6.43252 12.8083 6.18326 12.5984 5.97329C12.3885 5.76333 12.1394 5.59677 11.8651 5.48313C11.5908 5.36949 11.2969 5.311 11 5.311Z" fill="black"/>
</g>
<defs>
<clipPath id="clip0_106_21">
<rect width="24" height="24" fill="white"/>
</clipPath>
</defs>
</svg>
