<svg width="24" height="24" viewBox="0 0 24 24" fill="none" xmlns="http://www.w3.org/2000/svg">
<g clip-path="url(#clip0_106_15)">
<path d="M20.713 7.1281L20.467 7.6941C20.4286 7.78627 20.3637 7.865 20.2806 7.92038C20.1975 7.97575 20.0999 8.00531 20 8.00531C19.9001 8.00531 19.8025 7.97575 19.7194 7.92038C19.6363 7.865 19.5714 7.78627 19.533 7.6941L19.287 7.1281C18.8545 6.12683 18.0624 5.32402 17.067 4.8781L16.308 4.5391C16.2159 4.49675 16.1379 4.42887 16.0832 4.34353C16.0286 4.25819 15.9995 4.15896 15.9995 4.0576C15.9995 3.95625 16.0286 3.85702 16.0832 3.77168C16.1379 3.68633 16.2159 3.61846 16.308 3.5761L17.025 3.2571C18.0454 2.79848 18.8511 1.96599 19.276 0.931105L19.53 0.320105C19.5672 0.225458 19.632 0.144203 19.716 0.0869296C19.8 0.0296566 19.8993 -0.000976563 20.001 -0.000976562C20.1027 -0.000976562 20.202 0.0296566 20.286 0.0869296C20.37 0.144203 20.4348 0.225458 20.472 0.320105L20.725 0.930105C21.1495 1.96518 21.9548 2.79804 22.975 3.2571L23.693 3.5771C23.7848 3.61958 23.8625 3.68745 23.917 3.77268C23.9715 3.85791 24.0004 3.95695 24.0004 4.0581C24.0004 4.15926 23.9715 4.2583 23.917 4.34353C23.8625 4.42876 23.7848 4.49663 23.693 4.5391L22.933 4.8771C21.9378 5.32347 21.1461 6.12663 20.714 7.1281M8.5 6.0001H6.5V18.0001H8.5V6.0001ZM4 10.0001H2V14.0001H4V10.0001ZM13 2.0001H11V22.0001H13V2.0001ZM17.5 8.0001H15.5V18.0001H17.5V8.0001ZM22 10.0001H20V14.0001H22V10.0001Z" fill="black"/>
</g>
<defs>
<clipPath id="clip0_106_15">
<rect width="24" height="24" fill="white"/>
</clipPath>
</defs>
</svg>
